<svg xmlns="http://www.w3.org/2000/svg" xmlns:xlink="http://www.w3.org/1999/xlink" viewBox="0 0 93 100">
  <defs>
    <style>
      .cls-1 {
        fill: #2196f3;
      }

      .cls-1, .cls-5, .cls-6 {
        stroke: #42a5f5;
        stroke-miterlimit: 10;
        stroke-width: 3.75px;
      }

      .cls-2 {
        fill: #fff;
      }

      .cls-3, .cls-5, .cls-6 {
        fill: none;
      }

      .cls-4 {
        clip-path: url(#clip-path);
      }

      .cls-5 {
        stroke-linecap: square;
      }

      .cls-6 {
        stroke-linecap: round;
        stroke-linejoin: round;
      }

      .cls-7 {
        clip-path: url(#clip-path-2);
      }

      .cls-8 {
        fill: #ebecf2;
      }

      .cls-10, .cls-9 {
        fill: #dee1e3;
      }

      .cls-10 {
        opacity: 0.4;
      }

      .cls-11 {
        fill: #c5c6cc;
      }

      .cls-12 {
        stroke: none;
      }

      .cls-13 {
        filter: url(#Oval-3);
      }

      .cls-14 {
        filter: url(#Oval-2);
      }

      .cls-15 {
        filter: url(#Oval);
      }
    </style>
    <filter id="Oval" x="0" y="0" width="93" height="93" filterUnits="userSpaceOnUse">
      <feOffset dy="1" input="SourceAlpha"/>
      <feGaussianBlur stdDeviation="5.5" result="blur"/>
      <feFlood flood-color="#37688e" flood-opacity="0.302"/>
      <feComposite operator="in" in2="blur"/>
      <feComposite in="SourceGraphic"/>
    </filter>
    <filter id="Oval-2" x="8.25" y="22.75" width="77.25" height="77.25" filterUnits="userSpaceOnUse">
      <feOffset dy="8" input="SourceAlpha"/>
      <feGaussianBlur stdDeviation="5.5" result="blur-2"/>
      <feFlood flood-color="#37688e" flood-opacity="0.251"/>
      <feComposite operator="in" in2="blur-2"/>
      <feComposite in="SourceGraphic"/>
    </filter>
    <filter id="Oval-3" x="0" y="0" width="93" height="93" filterUnits="userSpaceOnUse">
      <feOffset dy="1" input="SourceAlpha"/>
      <feGaussianBlur stdDeviation="5.5" result="blur-3"/>
      <feFlood flood-color="#37688e" flood-opacity="0.302"/>
      <feComposite operator="in" in2="blur-3"/>
      <feComposite in="SourceGraphic"/>
    </filter>
    <clipPath id="clip-path">
      <g class="cls-15" transform="matrix(1, 0, 0, 1, 0, 0)">
        <circle id="Oval-4" data-name="Oval" class="cls-1" cx="30" cy="30" r="30" transform="translate(0 0)"/>
      </g>
    </clipPath>
    <clipPath id="clip-path-2">
      <path id="Combined_Shape" data-name="Combined Shape" class="cls-2" d="M16.993,32.182v.832l-4.438.464a.648.648,0,0,1-.624-.31l-.257-.427a.65.65,0,0,1,.153-.844l3.68-2.912V21.617l-14.073.718a.654.654,0,0,1-.459-.158l-.757-.656a.649.649,0,0,1-.223-.5l.023-1.456A.649.649,0,0,1,.371,19l15.136-7.771V4.413A1.622,1.622,0,0,1,15.9,3.355L18.779,0l2.878,3.355a1.62,1.62,0,0,1,.392,1.057v6.765L37.281,19a.649.649,0,0,1,.353.567l.023,1.456a.652.652,0,0,1-.224.5l-.756.656a.654.654,0,0,1-.459.158l-14.169-.723v7.355l3.7,2.93a.649.649,0,0,1,.153.844l-.257.427a.647.647,0,0,1-.624.31l-4.438-.464v-.882l-1.818,2.913Z" transform="translate(0.861 0)"/>
    </clipPath>
  </defs>
  <g id="Logo" transform="translate(16.5 15.359)">
    <g id="Group_3" data-name="Group 3" transform="translate(0 0.141)">
      <g class="cls-14" transform="matrix(1, 0, 0, 1, -16.5, -15.5)">
        <circle id="Oval-5" data-name="Oval" class="cls-3" cx="22.125" cy="22.125" r="22.125" transform="translate(24.75 31.25)"/>
      </g>
      <g class="cls-13" transform="matrix(1, 0, 0, 1, -16.5, -15.5)">
        <g id="Oval-6" data-name="Oval" class="cls-1" transform="translate(16.5 15.5)">
          <circle class="cls-12" cx="30" cy="30" r="30"/>
          <circle class="cls-3" cx="30" cy="30" r="28.125"/>
        </g>
      </g>
      <g id="Group_3-2" data-name="Group 3" class="cls-4">
        <g id="Group_2" data-name="Group 2" transform="translate(2.25 4.5)">
          <path id="Line" class="cls-5" d="M.464,1.875H54.286" transform="translate(0 16.5)"/>
          <path id="Line-2" data-name="Line" class="cls-5" d="M.464,1.875H54.286" transform="translate(0 32.25)"/>
          <path id="Path_2" data-name="Path 2" class="cls-6" d="M9.75,0S-.212,11.578,0,26.25,9.75,51,9.75,51" transform="translate(17.25)"/>
          <path id="Path_2-2" data-name="Path 2" class="cls-6" d="M-9.75,0S.212,11.578,0,26.25-9.75,51-9.75,51" transform="translate(37.5)"/>
        </g>
      </g>
    </g>
    <g id="Group_7" data-name="Group 7" transform="translate(3.461 2.077)">
      <g id="Plane_Icon" data-name="Plane Icon" transform="translate(32.154 0.836) rotate(60)">
        <path id="Combined_Shape-2" data-name="Combined Shape" class="cls-2" d="M16.993,32.182v.832l-4.438.464a.648.648,0,0,1-.624-.31l-.257-.427a.65.65,0,0,1,.153-.844l3.68-2.912V21.617l-14.073.718a.654.654,0,0,1-.459-.158l-.757-.656a.649.649,0,0,1-.223-.5l.023-1.456A.649.649,0,0,1,.371,19l15.136-7.771V4.413A1.622,1.622,0,0,1,15.9,3.355L18.779,0l2.878,3.355a1.62,1.62,0,0,1,.392,1.057v6.765L37.281,19a.649.649,0,0,1,.353.567l.023,1.456a.652.652,0,0,1-.224.5l-.756.656a.654.654,0,0,1-.459.158l-14.169-.723v7.355l3.7,2.93a.649.649,0,0,1,.153.844l-.257.427a.647.647,0,0,1-.624.31l-4.438-.464v-.882l-1.818,2.913Z" transform="translate(0.861 0)"/>
        <g id="Plane_Icon-2" data-name="Plane Icon" class="cls-7">
          <rect id="Rectangle_7" data-name="Rectangle 7" class="cls-8" width="1.309" height="12.408" transform="translate(15.059 9.94)"/>
          <path id="Rectangle_5" data-name="Rectangle 5" class="cls-9" d="M.028,8.642a.649.649,0,0,1,.353-.567L16.11,0V10.665l-14.666.748a.649.649,0,0,1-.459-.158L.229,10.6A.649.649,0,0,1,0,10.1Z" transform="matrix(-1, 0, 0, 1, 38.522, 10.921)"/>
          <path id="Combined_Shape-3" data-name="Combined Shape" class="cls-10" d="M4.46,4.721a.657.657,0,0,1-.068,0L-.045,4.253v-1.2L.987,1.22A1.736,1.736,0,0,0,1.21.371V.041l3.911,3.1a.649.649,0,0,1,.153.844l-.257.427A.651.651,0,0,1,4.46,4.721Z" transform="translate(21.492 28.761)"/>
          <path id="Combined_Shape-4" data-name="Combined Shape" class="cls-11" d="M0,10.542V0L1.791.92l1.956,9.813Z" transform="translate(22.68 11.058)"/>
          <path id="Combined_Shape-5" data-name="Combined Shape" class="cls-9" d="M3.334.656v34.4s-1.815-.033-3.281-.033l-.053,0A12.1,12.1,0,0,0,2.026,28.44V4.625A6.827,6.827,0,0,0,.339,0C1.692.228,3.334.656,3.334.656Z" transform="translate(19.576 0.023)"/>
        </g>
      </g>
    </g>
  </g>
</svg>
